<?xml version="1.0" standalone="no"?>
<!DOCTYPE svg PUBLIC "-//W3C//DTD SVG 20010904//EN"
 "http://www.w3.org/TR/2001/REC-SVG-20010904/DTD/svg10.dtd">
<svg version="1.0" xmlns="http://www.w3.org/2000/svg"
 width="57.000000pt" height="41.000000pt" viewBox="0 0 57.000000 41.000000"
 preserveAspectRatio="xMidYMid meet">
<metadata>
Created by potrace 1.16, written by Peter Selinger 2001-2019
</metadata>
<g transform="translate(0.000000,41.000000) scale(0.038255,-0.049398)"
fill="#000000" stroke="none">
<path d="M0 415 l0 -415 745 0 745 0 0 415 0 415 -745 0 -745 0 0 -415z m684
144 l115 -31 63 21 c34 12 80 21 102 21 l41 -1 -35 -20 c-26 -15 -29 -18 -10
-13 14 4 37 13 53 21 35 17 67 3 67 -31 0 -63 -177 -147 -450 -213 -154 -37
-212 -31 -182 18 11 17 10 25 -8 53 -25 41 -25 43 1 56 16 9 28 7 60 -9 49
-26 50 -26 93 0 l36 21 -62 40 c-78 50 -83 58 -57 81 28 23 39 22 173 -14z
m261 -202 c4 -18 5 -51 3 -72 -2 -32 -8 -41 -29 -49 -23 -8 -31 -3 -72 40 -26
27 -47 54 -47 60 0 9 100 52 127 53 7 1 15 -14 18 -32z"/>
</g>
</svg>
